<svg width="82" height="70" viewBox="0 0 82 70" fill="none" xmlns="http://www.w3.org/2000/svg">
<path d="M39.7422 30.4926V24.1986C39.7422 24.1044 39.7577 24.0109 39.7881 23.9218C39.9014 23.5899 40.2057 23.3605 40.556 23.343L42.5451 23.2434C42.8369 23.2288 43.1164 23.362 43.2889 23.5978C43.3634 23.6995 43.4147 23.8163 43.4394 23.9399L44.6596 30.0378C44.7024 30.2513 44.6716 30.473 44.5724 30.6669C44.4249 30.9548 44.143 31.1497 43.8216 31.1859L40.8879 31.5165C40.517 31.5582 40.1525 31.3962 39.9351 31.0929C39.8097 30.9179 39.7422 30.708 39.7422 30.4926Z" fill="#EB3D32"/>
<path d="M59.676 31.5841L57.5736 23.0679L46.9337 22.5698C46.482 22.5486 46.0527 22.7672 45.804 23.1449C45.6125 23.4358 45.5477 23.7921 45.6246 24.1318L47.0384 30.3774C47.1044 30.6688 47.2532 30.9348 47.4669 31.1435C47.7562 31.426 48.1445 31.5841 48.5489 31.5841H59.676Z" fill="#EB3D32"/>
<path d="M61.0775 31.5841L58.9752 23.0679L66.637 23.4208C67.0215 23.4385 67.3901 23.5792 67.6886 23.8221C67.9964 24.0726 68.2127 24.418 68.3036 24.8043L69.5758 30.2082C69.6657 30.5902 69.549 30.9914 69.2682 31.2656C69.0591 31.4698 68.7784 31.5841 68.4861 31.5841H61.0775Z" fill="#EB3D32"/>
<path d="M63.0238 46.1072H60.7657C58.4608 38.9292 50.4095 38.7061 46.6719 39.4919V36.808C46.6719 36.2949 46.9105 35.811 47.3176 35.4987C47.6058 35.2776 47.9589 35.1577 48.3222 35.1577H48.4702C48.6205 35.1577 48.7705 35.174 48.9174 35.2062L62.2344 38.1285C62.4437 38.1745 62.6328 38.2861 62.7742 38.4471C62.9351 38.6304 63.0238 38.866 63.0238 39.1099V46.1072Z" fill="#EB3D32"/>
<path d="M17.7056 1.47312C36.1674 -4.24931 50.4354 8.11375 55.0814 14.3995H50.9543C48.3328 11.7889 40.0374 6.75014 27.828 7.48011C12.5662 8.39256 -1.13766 31.5841 17.7056 52.1903C32.8185 68.7172 51.759 63.1144 58.9745 58.5775H60.999C51.6557 71.0477 33.5128 75.5339 14.2795 60.5545C-5.46874 45.1741 -5.10867 8.54464 17.7056 1.47312Z" fill="#EB3D32"/>
<path d="M57.4175 15.9964L33.9019 13.9434L40.832 18.3535L62.8682 19.1139L57.4175 15.9964Z" fill="#EB3D32"/>
<path d="M8.20605 31.356L31.1766 19.9503V32.9528L8.82898 36.3745L8.20605 31.356Z" fill="#EB3D32"/>
<path d="M9.52978 39.492L31.1766 37.1349V40.8607L9.52978 40.1764V39.492Z" fill="#EB3D32"/>
<path d="M13.1116 45.0428L41.4549 48.0083L41.8564 46.4836C42.0538 45.734 42.4051 45.0338 42.888 44.4276L43.2919 43.9204C43.6192 43.5096 44.0459 43.1891 44.5317 42.9894C45.0162 42.7902 45.5434 42.7176 46.0637 42.7786L46.3329 42.8101C46.9156 42.8784 47.4772 43.0701 47.9801 43.3723L48.5302 43.7029C49.0028 43.9869 49.4408 44.3249 49.8354 44.7102L50.3785 45.2406C51.0721 45.9179 51.6913 46.6673 52.2257 47.4761L52.9792 48.6166L81.9454 48.0083C82.0752 48.87 82.0544 50.989 80.9331 52.5705C80.985 53.8378 80.4971 56.418 78.13 56.6005C76.5726 58.4508 72.399 61.0868 68.1631 56.8287C63.3613 56.854 53.8357 56.9503 54.1471 57.1328L52.8612 59.1529C52.5277 59.6768 52.0959 60.1311 51.5895 60.4907C50.9675 60.9324 50.2494 61.2198 49.4944 61.329L49.0235 61.3971C48.7021 61.4436 48.3778 61.467 48.0531 61.467H47.0224C46.3814 61.467 45.7482 61.3259 45.1677 61.0538C44.4699 60.7268 43.871 60.221 43.4318 59.5878L43.051 59.0389C42.664 58.4809 42.362 57.8686 42.155 57.2219L41.2992 54.5475L13.1116 45.0428Z" fill="#EB3D32"/>
<path d="M54.4225 51.3403L53.3691 50.6694L53.6927 51.4593C53.8888 51.9381 54.2078 52.3565 54.6176 52.6724C55.1689 53.0974 55.8532 53.3129 56.5486 53.2803L79.8437 52.1902L56.0344 51.8235C55.4627 51.8147 54.9047 51.6474 54.4225 51.3403Z" fill="white"/>
<ellipse rx="2.58874" ry="5.62794" transform="matrix(0.996014 -0.0892002 0.0935048 0.995619 46.0392 53.158)" fill="white"/>
<ellipse rx="1.58965" ry="3.45589" transform="matrix(0.996014 -0.0892002 0.0935048 0.995619 46.0871 53.3397)" fill="#EB3D32"/>
<ellipse rx="1.04971" ry="2.28208" transform="matrix(0.996014 -0.0892002 0.0935048 0.995619 45.2833 53.4917)" fill="white"/>
<path d="M64.2722 38.4113C64.2713 38.2433 64.4067 38.1064 64.5747 38.1055L74.8675 38.0486C75.0354 38.0477 75.1724 38.1831 75.1733 38.3511C75.1743 38.519 75.0389 38.656 74.8709 38.6569L64.5781 38.7138C64.4101 38.7147 64.2732 38.5793 64.2722 38.4113Z" fill="#EB3D32"/>
<path d="M64.2742 39.6574C64.2732 39.4894 64.4086 39.3525 64.5766 39.3516L74.8694 39.2947C75.0374 39.2938 75.1743 39.4292 75.1753 39.5972C75.1762 39.7651 75.0408 39.9021 74.8729 39.903L64.5801 39.9599C64.4121 39.9608 64.2751 39.8254 64.2742 39.6574Z" fill="#EB3D32"/>
<path d="M64.2742 40.8742C64.2732 40.7062 64.4086 40.5693 64.5766 40.5684L74.8694 40.5115C75.0374 40.5106 75.1743 40.646 75.1753 40.814C75.1762 40.9819 75.0408 41.1189 74.8729 41.1198L64.5801 41.1767C64.4121 41.1776 64.2751 41.0422 64.2742 40.8742Z" fill="#EB3D32"/>
<path d="M64.2742 42.0905C64.2732 41.9225 64.4086 41.7856 64.5766 41.7847L74.8694 41.7278C75.0374 41.7269 75.1743 41.8623 75.1753 42.0303C75.1762 42.1982 75.0408 42.3352 74.8729 42.3361L64.5801 42.393C64.4121 42.3939 64.2751 42.2585 64.2742 42.0905Z" fill="#EB3D32"/>
<path d="M64.2742 43.3073C64.2732 43.1393 64.4086 43.0024 64.5766 43.0015L74.8694 42.9446C75.0374 42.9437 75.1743 43.0791 75.1753 43.2471C75.1762 43.415 75.0408 43.552 74.8729 43.5529L64.5801 43.6098C64.4121 43.6107 64.2751 43.4753 64.2742 43.3073Z" fill="#EB3D32"/>
<path d="M64.2742 44.5241C64.2732 44.3561 64.4086 44.2192 64.5766 44.2183L74.8694 44.1614C75.0374 44.1605 75.1743 44.2959 75.1753 44.4639C75.1762 44.6318 75.0408 44.7688 74.8729 44.7697L64.5801 44.8266C64.4121 44.8275 64.2751 44.6921 64.2742 44.5241Z" fill="#EB3D32"/>
<path d="M64.2742 45.7407C64.2732 45.5727 64.4086 45.4358 64.5766 45.4348L74.8694 45.3779C75.0374 45.377 75.1743 45.5124 75.1753 45.6804C75.1762 45.8484 75.0408 45.9853 74.8729 45.9862L64.5801 46.0431C64.4121 46.0441 64.2751 45.9086 64.2742 45.7407Z" fill="#EB3D32"/>
</svg>
