<svg width="50" height="50" viewBox="0 0 50 50" fill="none" xmlns="http://www.w3.org/2000/svg">
<g filter="url(#filter0_d_358_714)">
<path fill-rule="evenodd" clip-rule="evenodd" d="M38.4632 7.52242C34.8911 3.96315 30.1405 2.00217 25.0793 2C14.6506 2 6.16274 10.4467 6.15856 20.8288C6.15728 24.1475 7.02835 27.3868 8.68418 30.2426L6 40L16.0301 37.3816C18.7936 38.8816 21.905 39.6724 25.0716 39.6735H25.0795C35.5071 39.6735 43.9956 31.2258 44 20.8435C44.0018 15.8124 42.0354 11.0815 38.4632 7.52242ZM25.0795 36.4935H25.0731C22.2513 36.4924 19.4835 35.7378 17.0691 34.3118L16.4948 33.9728L10.5428 35.5266L12.1315 29.7512L11.7576 29.1588C10.1835 26.6672 9.35191 23.7871 9.35318 20.8297C9.35664 12.2006 16.4112 5.18025 25.0858 5.18025C29.286 5.1817 33.2347 6.81169 36.2038 9.77019C39.1728 12.7285 40.8068 16.6606 40.8052 20.8426C40.8017 29.4724 33.7471 36.4935 25.0795 36.4935ZM33.7054 24.7716C33.2327 24.5363 30.9086 23.398 30.4751 23.2409C30.0419 23.0842 29.7266 23.0056 29.4115 23.4766C29.0964 23.9476 28.1902 25.0073 27.9144 25.3214C27.6386 25.6352 27.3628 25.6747 26.8902 25.439C26.4173 25.2037 24.8941 24.7067 23.0883 23.1037C21.683 21.8562 20.7342 20.3155 20.4584 19.8443C20.1826 19.3733 20.4289 19.1187 20.6657 18.8841C20.8783 18.6732 21.1385 18.3344 21.3749 18.0598C21.6114 17.7851 21.6901 17.5888 21.8477 17.2748C22.0053 16.9608 21.9265 16.686 21.8082 16.4506C21.6901 16.2149 20.7445 13.899 20.3506 12.957C19.9669 12.0397 19.5771 12.1638 19.2869 12.1493C19.0115 12.1357 18.696 12.1326 18.3807 12.1326C18.0656 12.1326 17.5535 12.2504 17.1201 12.7214C16.6869 13.1925 15.4655 14.3308 15.4655 16.6467C15.4655 18.9626 17.1594 21.1996 17.3959 21.5138C17.6322 21.8278 20.7296 26.58 25.4719 28.6182C26.5997 29.103 27.4804 29.3923 28.167 29.6094C29.2997 29.9675 30.3302 29.9168 31.1447 29.7958C32.0531 29.6606 33.9417 28.6575 34.3357 27.5585C34.7296 26.4594 34.7296 25.5173 34.6115 25.3211C34.4933 25.1251 34.1782 25.0073 33.7054 24.7716Z" fill="url(#paint0_linear_358_714)"/>
</g>
<defs>
<filter id="filter0_d_358_714" x="0" y="0" width="50" height="50" filterUnits="userSpaceOnUse" color-interpolation-filters="sRGB">
<feFlood flood-opacity="0" result="BackgroundImageFix"/>
<feColorMatrix in="SourceAlpha" type="matrix" values="0 0 0 0 0 0 0 0 0 0 0 0 0 0 0 0 0 0 127 0" result="hardAlpha"/>
<feOffset dy="4"/>
<feGaussianBlur stdDeviation="3"/>
<feComposite in2="hardAlpha" operator="out"/>
<feColorMatrix type="matrix" values="0 0 0 0 0 0 0 0 0 0 0 0 0 0 0 0 0 0 0.08 0"/>
<feBlend mode="normal" in2="BackgroundImageFix" result="effect1_dropShadow_358_714"/>
<feBlend mode="normal" in="SourceGraphic" in2="effect1_dropShadow_358_714" result="shape"/>
</filter>
<linearGradient id="paint0_linear_358_714" x1="25" y1="2" x2="25" y2="40" gradientUnits="userSpaceOnUse">
<stop stop-color="#60FC7C"/>
<stop offset="1" stop-color="#26D044"/>
</linearGradient>
</defs>
</svg>
