<?xml version="1.0"?>
<svg xmlns="http://www.w3.org/2000/svg" xmlns:xlink="http://www.w3.org/1999/xlink" version="1.1" xml:space="preserve">
	<defs>
		<symbol id="arrow-left" width="100%" height="100%" viewBox="0 0 17 11">
			<path fill-rule="evenodd" clip-rule="evenodd" d="M5.70711 9.70711C5.31658 10.0976 4.68342 10.0976 4.29289 9.70711L0.292894 5.70711C-0.0976312 5.31658 -0.0976312 4.68342 0.292894 4.29289L4.29289 0.292894C4.68342 -0.0976312 5.31658 -0.0976312 5.70711 0.292894C6.09763 0.683417 6.09763 1.31658 5.70711 1.70711L3.41421 4L15 4C15.5523 4 16 4.44771 16 5C16 5.55228 15.5523 6 15 6L3.41421 6L5.70711 8.29289C6.09763 8.68342 6.09763 9.31658 5.70711 9.70711Z" fill="currentColor" />
		</symbol>
		<symbol id="calendar" width="100%" height="100%" viewBox="0 0 16 16">
			<path fill-rule="evenodd" clip-rule="evenodd" d="M4 0C3.44772 0 3 0.447715 3 1V2H2C0.895431 2 0 2.89543 0 4V14C0 15.1046 0.895431 16 2 16H14C15.1046 16 16 15.1046 16 14V4C16 2.89543 15.1046 2 14 2H13V1C13 0.447715 12.5523 0 12 0C11.4477 0 11 0.447715 11 1V2H5V1C5 0.447715 4.55228 0 4 0ZM4 5C3.44772 5 3 5.44772 3 6C3 6.55228 3.44772 7 4 7H12C12.5523 7 13 6.55228 13 6C13 5.44772 12.5523 5 12 5H4Z" fill="currentColor" />
		</symbol>
		<symbol id="check" width="100%" height="100%" viewBox="0 0 14 14">
			<path fill-rule="evenodd" clip-rule="evenodd" d="M7 14C10.866 14 14 10.866 14 7C14 3.13401 10.866 0 7 0C3.13401 0 0 3.13401 0 7C0 10.866 3.13401 14 7 14ZM10.2437 5.86872C10.5854 5.52701 10.5854 4.97299 10.2437 4.63128C9.90201 4.28957 9.34799 4.28957 9.00628 4.63128L6.125 7.51256L4.99372 6.38128C4.65201 6.03957 4.09799 6.03957 3.75628 6.38128C3.41457 6.72299 3.41457 7.27701 3.75628 7.61872L5.50628 9.36872C5.84799 9.71043 6.40201 9.71043 6.74372 9.36872L10.2437 5.86872Z" fill="currentColor" />
		</symbol>
		<symbol id="cross" width="100%" height="100%" viewBox="0 0 12 12">
			<path fill-rule="evenodd" clip-rule="evenodd" d="M0.292893 0.292893C0.683417 -0.0976311 1.31658 -0.0976311 1.70711 0.292893L6 4.58579L10.2929 0.292893C10.6834 -0.0976311 11.3166 -0.0976311 11.7071 0.292893C12.0976 0.683417 12.0976 1.31658 11.7071 1.70711L7.41421 6L11.7071 10.2929C12.0976 10.6834 12.0976 11.3166 11.7071 11.7071C11.3166 12.0976 10.6834 12.0976 10.2929 11.7071L6 7.41421L1.70711 11.7071C1.31658 12.0976 0.683417 12.0976 0.292893 11.7071C-0.0976311 11.3166 -0.0976311 10.6834 0.292893 10.2929L4.58579 6L0.292893 1.70711C-0.0976311 1.31658 -0.0976311 0.683417 0.292893 0.292893Z" fill="currentColor" />
		</symbol>
		<symbol id="edit" width="100%" height="100%" viewBox="0 0 18 17">
			<path d="M11 3.10004L2.40006 11.7C2.30006 11.8 2.30009 11.8 2.30009 11.9L1.00004 15.9C0.900037 16.3 1.30011 16.7 1.70011 16.6L3.30009 16.1L5.80009 15.3C5.90009 15.3 6.00004 15.2 6.00004 15.2L14.6 6.60004L11 3.10004Z" fill="currentColor" />
			<path d="M16.7001 0.900037C15.7001 3.65973e-05 14.2001 3.65973e-05 13.2001 0.900037L12 2.10005L15.4 5.50001L16.6 4.30006C17.1 3.80006 17.3 3.20005 17.3 2.60005C17.4 2.00005 17.2001 1.30004 16.7001 0.900037Z" fill="currentColor" />
		</symbol>
		<symbol id="eye" width="100%" height="100%" viewBox="0 0 14 12">
			<path d="M5.18759 6C5.18759 6.46413 5.37196 6.90925 5.70015 7.23744C6.02834 7.56563 6.47346 7.75 6.93759 7.75C7.40172 7.75 7.84684 7.56563 8.17503 7.23744C8.50322 6.90925 8.68759 6.46413 8.68759 6C8.68759 5.53587 8.50322 5.09075 8.17503 4.76256C7.84684 4.43437 7.40172 4.25 6.93759 4.25C6.47346 4.25 6.02834 4.43437 5.70015 4.76256C5.37196 5.09075 5.18759 5.53587 5.18759 6ZM13.722 5.59688C12.2407 2.47656 10.0017 0.90625 7.00009 0.90625C3.99696 0.90625 1.75947 2.47656 0.278215 5.59844C0.218802 5.72425 0.187988 5.86165 0.187988 6.00078C0.187988 6.13991 0.218802 6.27732 0.278215 6.40312C1.75947 9.52344 3.99853 11.0938 7.00009 11.0938C10.0032 11.0938 12.2407 9.52344 13.722 6.40156C13.8423 6.14844 13.8423 5.85469 13.722 5.59688ZM6.93759 8.75C5.41884 8.75 4.18759 7.51875 4.18759 6C4.18759 4.48125 5.41884 3.25 6.93759 3.25C8.45634 3.25 9.68759 4.48125 9.68759 6C9.68759 7.51875 8.45634 8.75 6.93759 8.75Z" fill="currentColor" />
		</symbol>
		<symbol id="eye-contur" width="100%" height="100%" viewBox="0 0 19 14">
			<path d="M17.1741 6.11029C17.5804 6.64171 17.5804 7.35914 17.1741 7.88971C15.8944 9.56029 12.8241 13 9.23955 13C5.65498 13 2.58469 9.56029 1.30497 7.88971C1.1073 7.63526 1 7.32222 1 7C1 6.67778 1.1073 6.36474 1.30497 6.11029C2.58469 4.43971 5.65498 1 9.23955 1C12.8241 1 15.8944 4.43971 17.1741 6.11029V6.11029Z" stroke="currentColor" stroke-width="1.6" stroke-linecap="round" stroke-linejoin="round" fill="none" />
			<path d="M9.2394 9.57145C10.6596 9.57145 11.8108 8.42018 11.8108 7.00002C11.8108 5.57986 10.6596 4.42859 9.2394 4.42859C7.81924 4.42859 6.66797 5.57986 6.66797 7.00002C6.66797 8.42018 7.81924 9.57145 9.2394 9.57145Z" stroke="currentColor" stroke-width="1.6" stroke-linecap="round" stroke-linejoin="round" fill="none" />
		</symbol>
		<symbol id="filter" width="100%" height="100%" viewBox="0 0 17 18">
			<path d="M8.76354 4.64583C8.76354 6.27277 7.44465 7.59167 5.81771 7.59167C4.19077 7.59167 2.87187 6.27277 2.87187 4.64583C2.87187 3.01889 4.19077 1.7 5.81771 1.7C7.44465 1.7 8.76354 3.01889 8.76354 4.64583Z" stroke="currentColor" stroke-width="1.9" fill="none" />
			<rect x="0.516504" y="3.67861" width="3.05735" height="1.93445" rx="0.967225" fill="currentColor" stroke="currentColor" stroke-width="0.3" />
			<circle cx="11.0031" cy="13.2155" r="2.94583" transform="rotate(-180 11.0031 13.2155)" stroke="currentColor" stroke-width="1.9" fill="none" />
			<rect x="8.71328" y="3.67861" width="7.20821" height="1.93445" rx="0.967225" fill="currentColor" stroke="currentColor" stroke-width="0.3" />
			<rect x="8.10801" y="14.1827" width="7.21167" height="1.93445" rx="0.967225" transform="rotate(-180 8.10801 14.1827)" fill="currentColor" stroke="currentColor" stroke-width="0.3" />
			<rect x="16.2188" y="14.1827" width="2.62969" height="1.93445" rx="0.967224" transform="rotate(-180 16.2188 14.1827)" fill="currentColor" stroke="currentColor" stroke-width="0.3" />
		</symbol>
		<symbol id="gal-ochka" width="100%" height="100%" viewBox="0 0 12 10">
			<path d="M6.23497 8.79934C5.9649 9.16589 5.54433 9.39118 5.0896 9.41357C4.63487 9.43619 4.19445 9.25292 3.88975 8.91452L1.15929 5.88444C0.725328 5.40316 0.763876 4.66128 1.24515 4.22732C1.72689 3.79336 2.46831 3.83214 2.90227 4.31365L4.83407 6.45758C4.8627 6.48944 4.90425 6.50652 4.94695 6.50444C4.98988 6.50236 5.02912 6.4809 5.05475 6.44673L9.02546 1.06128C9.40979 0.539605 10.1443 0.428577 10.6662 0.813137C11.1876 1.1977 11.2984 1.93219 10.9139 2.45363L6.23497 8.79934Z" fill="currentColor" />
		</symbol>
		<symbol id="gal-ochka-1" width="100%" height="100%" viewBox="0 0 14 14">
			<path fill-rule="evenodd" clip-rule="evenodd" d="M7 14C10.866 14 14 10.866 14 7C14 3.13401 10.866 0 7 0C3.13401 0 0 3.13401 0 7C0 10.866 3.13401 14 7 14ZM10.2437 5.86872C10.5854 5.52701 10.5854 4.97299 10.2437 4.63128C9.90201 4.28957 9.34799 4.28957 9.00628 4.63128L6.125 7.51256L4.99372 6.38128C4.65201 6.03957 4.09799 6.03957 3.75628 6.38128C3.41457 6.72299 3.41457 7.27701 3.75628 7.61872L5.50628 9.36872C5.84799 9.71043 6.40201 9.71043 6.74372 9.36872L10.2437 5.86872Z" fill="currentColor" />
		</symbol>
		<symbol id="heart" width="100%" height="100%" viewBox="0 0 20 18">
			<path d="M2.31802 2.31802C0.56066 4.07538 0.56066 6.92462 2.31802 8.68198L10.0001 16.364L17.682 8.68198C19.4393 6.92462 19.4393 4.07538 17.682 2.31802C15.9246 0.56066 13.0754 0.56066 11.318 2.31802L10.0001 3.63609L8.68198 2.31802C6.92462 0.56066 4.07538 0.56066 2.31802 2.31802Z" fill="currentColor" stroke="currentColor" stroke-width="1.6" stroke-linecap="round" stroke-linejoin="round" />
		</symbol>
		<symbol id="heart-contur" width="100%" height="100%" viewBox="0 0 20 18">
			<path d="M2.31802 2.31802C0.56066 4.07538 0.56066 6.92462 2.31802 8.68198L10.0001 16.364L17.682 8.68198C19.4393 6.92462 19.4393 4.07538 17.682 2.31802C15.9246 0.56066 13.0754 0.56066 11.318 2.31802L10.0001 3.63609L8.68198 2.31802C6.92462 0.56066 4.07538 0.56066 2.31802 2.31802Z" fill="none" stroke="currentColor" stroke-width="1.6" stroke-linecap="round" stroke-linejoin="round" />
		</symbol>
		<symbol id="i" width="100%" height="100%" viewBox="0 0 20 20">
			<path d="M11 14H10V10H9M10 6H10.01M19 10C19 14.9706 14.9706 19 10 19C5.02944 19 1 14.9706 1 10C1 5.02944 5.02944 1 10 1C14.9706 1 19 5.02944 19 10Z" stroke="currentColor" fill="none" stroke-width="2" stroke-linecap="round" stroke-linejoin="round" />
		</symbol>
		<symbol id="menu" width="100%" height="100%" viewBox="0 0 18 14">
			<path d="M1 1H17M1 7H17M1 13H17" fill="none" stroke="currentColor" stroke-width="2" stroke-linecap="round" stroke-linejoin="round" />
		</symbol>
		<symbol id="minus" width="100%" height="100%" viewBox="0 0 6 2">
			<path d="M5.27734 1.66406H0.792969V0.331055H5.27734V1.66406Z" fill="currentColor" />
		</symbol>
		<symbol id="no-stonks" width="100%" height="100%" viewBox="0 0 20 12">
			<path d="M11 11H19M19 11V3M19 11L11 3L7 7L1 1" stroke="currentColor" fill="none" stroke-width="2" stroke-linecap="round" stroke-linejoin="round" />
		</symbol>
		<symbol id="pause" width="100%" height="100%" viewBox="0 0 6 6">
			<path d="M0 0.428572C0 0.191878 0.268629 0 0.6 0H1.8C2.13137 0 2.4 0.191878 2.4 0.428571V5.57143C2.4 5.80812 2.13137 6 1.8 6H0.6C0.268629 6 0 5.80812 0 5.57143V0.428572Z" fill="currentColor" />
			<path d="M3.6 0.428572C3.6 0.191878 3.86863 0 4.2 0H5.4C5.73137 0 6 0.191878 6 0.428571V5.57143C6 5.80812 5.73137 6 5.4 6H4.2C3.86863 6 3.6 5.80812 3.6 5.57143V0.428572Z" fill="currentColor" />
		</symbol>
		<symbol id="play" width="100%" height="100%" viewBox="0 0 47 52">
			<path d="M44.2443 21.5775L8.19476 0.660181C5.26574 -1.03853 0.780029 0.609923 0.780029 4.81147V46.636C0.780029 50.4053 4.94826 52.677 8.19476 50.7873L44.2443 29.8801C47.4601 28.0205 47.4703 23.437 44.2443 21.5775Z" fill="currentColor" />
		</symbol>
		<symbol id="plus" width="100%" height="100%" viewBox="0 0 14 14">
			<path d="M7 1V7M7 7V13M7 7H13M7 7L1 7" fill="none" stroke="currentColor" stroke-width="2" stroke-linecap="round" stroke-linejoin="round" />
		</symbol>
		<symbol id="search" width="100%" height="100%" viewBox="0 0 20 20">
			<path d="M19 19L13 13M15 8C15 11.866 11.866 15 8 15C4.13401 15 1 11.866 1 8C1 4.13401 4.13401 1 8 1C11.866 1 15 4.13401 15 8Z" stroke="currentColor" stroke-width="2" stroke-linecap="round" stroke-linejoin="round" fill="none" />
		</symbol>
		<symbol id="search-1" width="100%" height="100%" viewBox="0 0 18 18">
			<path d="M4.87876 11.9899C4.56634 12.3023 4.56634 12.8088 4.87876 13.1212C5.19118 13.4337 5.69771 13.4337 6.01013 13.1212L4.87876 11.9899ZM11.7556 8.11111C11.7556 9.14204 10.9198 9.97778 9.88889 9.97778V11.5778C11.8035 11.5778 13.3556 10.0257 13.3556 8.11111H11.7556ZM8.02222 8.11111C8.02222 7.08018 8.85796 6.24444 9.88889 6.24444V4.64444C7.9743 4.64444 6.42222 6.19652 6.42222 8.11111H8.02222ZM9.88889 6.24444C10.9198 6.24444 11.7556 7.08018 11.7556 8.11111H13.3556C13.3556 6.19652 11.8035 4.64444 9.88889 4.64444V6.24444ZM7.43759 9.43104L4.87876 11.9899L6.01013 13.1212L8.56896 10.5624L7.43759 9.43104ZM9.88889 9.97778C9.3732 9.97778 8.90763 9.76972 8.56896 9.43104L7.43759 10.5624C8.06405 11.1889 8.93182 11.5778 9.88889 11.5778V9.97778ZM8.56896 9.43104C8.23028 9.09237 8.02222 8.6268 8.02222 8.11111H6.42222C6.42222 9.06818 6.81112 9.93595 7.43759 10.5624L8.56896 9.43104ZM16.2 9C16.2 12.9765 12.9765 16.2 9 16.2V17.8C13.8601 17.8 17.8 13.8601 17.8 9H16.2ZM9 16.2C5.02355 16.2 1.8 12.9765 1.8 9H0.2C0.2 13.8601 4.13989 17.8 9 17.8V16.2ZM1.8 9C1.8 5.02355 5.02355 1.8 9 1.8V0.2C4.13989 0.2 0.2 4.13989 0.2 9H1.8ZM9 1.8C12.9765 1.8 16.2 5.02355 16.2 9H17.8C17.8 4.13989 13.8601 0.2 9 0.2V1.8Z" fill="currentColor" />
		</symbol>
		<symbol id="settings" width="100%" height="100%" viewBox="0 0 17 17">
			<path d="M7.19693 2.52457C7.52858 1.15848 9.47142 1.15848 9.80307 2.52457C10.0173 3.40706 11.0284 3.82585 11.8039 3.35333C13.0043 2.62186 14.3781 3.99566 13.6467 5.19614C13.1742 5.97164 13.5929 6.98269 14.4754 7.19693C15.8415 7.52858 15.8415 9.47142 14.4754 9.80307C13.5929 10.0173 13.1742 11.0284 13.6467 11.8039C14.3781 13.0043 13.0043 14.3781 11.8039 13.6467C11.0284 13.1742 10.0173 13.5929 9.80307 14.4754C9.47142 15.8415 7.52858 15.8415 7.19693 14.4754C6.98269 13.5929 5.97164 13.1742 5.19615 13.6467C3.99566 14.3781 2.62186 13.0043 3.35333 11.8039C3.82585 11.0284 3.40706 10.0173 2.52457 9.80307C1.15848 9.47142 1.15848 7.52858 2.52457 7.19693C3.40706 6.98269 3.82585 5.97164 3.35333 5.19614C2.62186 3.99566 3.99566 2.62186 5.19614 3.35333C5.97164 3.82585 6.98269 3.40706 7.19693 2.52457Z" stroke="currentColor" stroke-width="1.6" stroke-linecap="round" stroke-linejoin="round" fill="none" />
			<path d="M10.8333 8.5C10.8333 9.78866 9.78866 10.8333 8.5 10.8333C7.21134 10.8333 6.16667 9.78866 6.16667 8.5C6.16667 7.21134 7.21134 6.16667 8.5 6.16667C9.78866 6.16667 10.8333 7.21134 10.8333 8.5Z" stroke="currentColor" stroke-width="1.6" stroke-linecap="round" stroke-linejoin="round" fill="none" />
		</symbol>
		<symbol id="to-right" width="100%" height="100%" viewBox="0 0 6 10">
			<path d="M4.09404 5L0.231231 1.29326C-0.0770772 0.997411 -0.0770772 0.517741 0.231231 0.221889C0.53954 -0.0739629 1.03941 -0.0739629 1.34772 0.221889L5.76877 4.46431C6.07708 4.76016 6.07708 5.23984 5.76877 5.53569L1.34772 9.77811C1.03941 10.074 0.53954 10.074 0.231231 9.77811C-0.0770772 9.48226 -0.0770772 9.00259 0.231231 8.70674L4.09404 5Z" fill="currentColor" />
		</symbol>
		<symbol id="to-right-double" width="100%" height="100%" viewBox="0 0 13 12">
			<path fill-rule="evenodd" clip-rule="evenodd" d="M0.292893 11.7071C0.683417 12.0976 1.31658 12.0976 1.70711 11.7071L6.70711 6.70711C7.09763 6.31658 7.09763 5.68342 6.70711 5.29289L1.70711 0.292894C1.31658 -0.0976307 0.683417 -0.0976306 0.292893 0.292894C-0.0976305 0.683418 -0.0976305 1.31658 0.292893 1.70711L4.58579 6L0.292893 10.2929C-0.0976305 10.6834 -0.0976305 11.3166 0.292893 11.7071ZM6.29289 11.7071C6.68342 12.0976 7.31658 12.0976 7.70711 11.7071L12.7071 6.70711C13.0976 6.31658 13.0976 5.68342 12.7071 5.29289L7.70711 0.292894C7.31658 -0.0976312 6.68342 -0.0976312 6.29289 0.292894C5.90237 0.683418 5.90237 1.31658 6.29289 1.70711L10.5858 6L6.29289 10.2929C5.90237 10.6834 5.90237 11.3166 6.29289 11.7071Z" fill="currentColor" />
		</symbol>
		<symbol id="to-left" width="100%" height="100%" viewBox="0 0 11 18">
			<path d="M3.76777 9L9.88388 2.88388C10.372 2.39573 10.372 1.60427 9.88388 1.11612C9.39573 0.627961 8.60427 0.627961 8.11612 1.11612L1.11612 8.11612C0.62796 8.60427 0.62796 9.39573 1.11612 9.88388L8.11612 16.8839C8.60427 17.372 9.39573 17.372 9.88388 16.8839C10.372 16.3957 10.372 15.6043 9.88388 15.1161L3.76777 9Z" fill="currentColor" />
		</symbol>
		<symbol id="to-left-double" width="100%" height="100%" viewBox="0 0 13 12">
			<path fill-rule="evenodd" clip-rule="evenodd" d="M12.7071 11.7071C12.3166 12.0976 11.6834 12.0976 11.2929 11.7071L6.29289 6.70711C5.90237 6.31658 5.90237 5.68342 6.29289 5.29289L11.2929 0.292894C11.6834 -0.0976307 12.3166 -0.0976306 12.7071 0.292894C13.0976 0.683418 13.0976 1.31658 12.7071 1.70711L8.41421 6L12.7071 10.2929C13.0976 10.6834 13.0976 11.3166 12.7071 11.7071ZM6.70711 11.7071C6.31658 12.0976 5.68342 12.0976 5.29289 11.7071L0.292894 6.70711C-0.0976312 6.31658 -0.0976312 5.68342 0.292894 5.29289L5.29289 0.292894C5.68342 -0.0976312 6.31658 -0.0976312 6.70711 0.292894C7.09763 0.683418 7.09763 1.31658 6.70711 1.70711L2.41421 6L6.70711 10.2929C7.09763 10.6834 7.09763 11.3166 6.70711 11.7071Z" fill="currentColor" />
		</symbol>
		<symbol id="to-down" width="100%" height="100%" viewBox="0 0 10 6">
			<path d="M5 4.09404L8.70674 0.231231C9.00259 -0.0770772 9.48226 -0.0770772 9.77811 0.231231C10.074 0.53954 10.074 1.03941 9.77811 1.34772L5.53569 5.76877C5.23983 6.07708 4.76016 6.07708 4.46431 5.76877L0.221888 1.34772C-0.0739642 1.03941 -0.0739641 0.53954 0.221888 0.231231C0.517739 -0.0770776 0.997412 -0.0770775 1.29326 0.231231L5 4.09404Z" fill="currentColor" />
		</symbol>
		<symbol id="triangle-left" width="100%" height="100%" viewBox="0 0 5 6">
			<path d="M0.499999 3.86603C-0.166668 3.48112 -0.166667 2.51888 0.5 2.13397L3.5 0.401923C4.16667 0.0170233 5 0.498149 5 1.26795L5 4.73205C5 5.50185 4.16667 5.98298 3.5 5.59808L0.499999 3.86603Z" fill="currentColor" />
		</symbol>
		<symbol id="triangle-right" width="100%" height="100%" viewBox="0 0 5 6">
			<path d="M4.5 3.86603C5.16667 3.48112 5.16667 2.51888 4.5 2.13397L1.5 0.401923C0.833332 0.0170233 2.84205e-07 0.498149 2.50556e-07 1.26795L9.91352e-08 4.73205C6.54861e-08 5.50185 0.833334 5.98298 1.5 5.59808L4.5 3.86603Z" fill="currentColor" />
		</symbol>
		<symbol id="user" width="100%" height="100%" viewBox="0 0 44 47">
			<path d="M43.01 41.7883C41.7708 38.1913 39.0401 35.0128 35.2416 32.7458C31.4431 30.4788 26.789 29.25 22.0011 29.25C17.2132 29.25 12.559 30.4788 8.76052 32.7458C4.96201 35.0128 2.23139 38.1913 0.992188 41.7883L22.0011 46.1667L43.01 41.7883Z" fill="currentColor" />
			<ellipse cx="22.0013" cy="12.3333" rx="12.0833" ry="12.0833" fill="currentColor" />
		</symbol>
		<symbol id="email-contur" width="100%" height="100%" viewBox="0 0 37 29">
			<rect x="2" y="2" width="33.3333" height="25" rx="2" stroke="currentColor" stroke-width="2.4" fill="none" />
			<path d="M2 8.25L17.7722 16.1361C18.3353 16.4176 18.998 16.4176 19.5611 16.1361L35.3333 8.25" stroke="currentColor" stroke-width="2.4" fill="none" />
		</symbol>
		<symbol id="phone-contur" width="100%" height="100%" viewBox="0 0 34 33">
			<path d="M2 5.37024C2 3.56756 3.49238 2.1062 5.33333 2.1062H10.7987C11.5161 2.1062 12.153 2.55571 12.3799 3.22213L14.8762 10.5555C15.1385 11.326 14.7823 12.1681 14.0404 12.5313L10.2783 14.3733C12.1154 18.3631 15.398 21.5774 19.4725 23.3763L21.3536 19.6924C21.7245 18.966 22.5845 18.6172 23.3713 18.874L30.8604 21.3185C31.5409 21.5406 32 22.1643 32 22.8668V28.2185C32 30.0212 30.5076 31.4826 28.6667 31.4826H27C13.1929 31.4826 2 20.5224 2 7.00226V5.37024Z" stroke="currentColor" stroke-width="2.4" stroke-linecap="round" stroke-linejoin="round" fill="none" />
		</symbol>
		<symbol id="circle-check" width="100%" height="100%" viewBox="0 0 30 30">
			<path d="M15 26.25C21.2132 26.25 26.25 21.2132 26.25 15C26.25 8.7868 21.2132 3.75 15 3.75C8.7868 3.75 3.75 8.7868 3.75 15C3.75 21.2132 8.7868 26.25 15 26.25Z" stroke="currentColor" stroke-width="3" stroke-linecap="round" stroke-linejoin="round" fill="none" />
			<path d="M11.25 15L13.75 17.5L18.75 12.5" stroke="currentColor" stroke-width="3" stroke-linecap="round" stroke-linejoin="round" fill="none" />
		</symbol>
		<symbol id="shield-check" width="100%" height="100%" viewBox="0 0 40 46">
			<path fill-rule="evenodd" clip-rule="evenodd" d="M37.6328 7.47954L23.3473 1.3572C21.279 0.470777 18.9378 0.470776 16.8694 1.3572L2.58399 7.47954C1.57625 7.91143 0.922852 8.90233 0.922852 9.99872V24.3958C0.922852 29.7067 3.48767 34.6906 7.80928 37.7775L16.9223 44.2867C18.8282 45.6481 21.3886 45.6481 23.2945 44.2867L32.4075 37.7775C36.7291 34.6906 39.2939 29.7067 39.2939 24.3958V9.99872C39.2939 8.90233 38.6405 7.91143 37.6328 7.47954ZM29.8926 17.6638C30.5826 16.8013 30.4428 15.5427 29.5802 14.8527C28.7177 14.1627 27.4591 14.3025 26.7691 15.1651L17.2019 27.1241L13.3003 23.2226C12.5193 22.4416 11.253 22.4416 10.4719 23.2226C9.69086 24.0037 9.69086 25.27 10.4719 26.051L15.5585 31.1376C16.6121 32.1912 18.3476 32.0951 19.2784 30.9316L29.8926 17.6638Z" fill="currentColor" />
		</symbol>
		<symbol id="calculator" width="100%" height="100%" viewBox="0 0 12 16">
			<path fill-rule="evenodd" clip-rule="evenodd" d="M2 0C0.89543 0 0 0.895431 0 2V14C0 15.1046 0.895431 16 2 16H10C11.1046 16 12 15.1046 12 14V2C12 0.895431 11.1046 0 10 0H2ZM3 2C2.44772 2 2 2.44772 2 3C2 3.55228 2.44772 4 3 4H9C9.55228 4 10 3.55228 10 3C10 2.44772 9.55228 2 9 2H3ZM9 9C9.55229 9 10 9.44771 10 10V13C10 13.5523 9.55229 14 9 14C8.44771 14 8 13.5523 8 13V10C8 9.44771 8.44771 9 9 9ZM6 12C5.44772 12 5 12.4477 5 13C5 13.5523 5.44772 14 6 14H6.01C6.56228 14 7.01 13.5523 7.01 13C7.01 12.4477 6.56228 12 6.01 12H6ZM2 13C2 12.4477 2.44772 12 3 12H3.01C3.56228 12 4.01 12.4477 4.01 13C4.01 13.5523 3.56228 14 3.01 14H3C2.44772 14 2 13.5523 2 13ZM3 9C2.44772 9 2 9.44771 2 10C2 10.5523 2.44772 11 3 11H3.01C3.56228 11 4.01 10.5523 4.01 10C4.01 9.44771 3.56228 9 3.01 9H3ZM5 10C5 9.44771 5.44772 9 6 9H6.01C6.56228 9 7.01 9.44771 7.01 10C7.01 10.5523 6.56228 11 6.01 11H6C5.44772 11 5 10.5523 5 10ZM9 6C8.44771 6 8 6.44772 8 7C8 7.55228 8.44771 8 9 8H9.01C9.56229 8 10.01 7.55228 10.01 7C10.01 6.44772 9.56229 6 9.01 6H9ZM5 7C5 6.44772 5.44772 6 6 6H6.01C6.56228 6 7.01 6.44772 7.01 7C7.01 7.55228 6.56228 8 6.01 8H6C5.44772 8 5 7.55228 5 7ZM3 6C2.44772 6 2 6.44772 2 7C2 7.55228 2.44772 8 3 8H3.01C3.56228 8 4.01 7.55228 4.01 7C4.01 6.44772 3.56228 6 3.01 6H3Z" fill="currentColor" />
		</symbol>
		<symbol id="doc" width="100%" height="100%" viewBox="0 0 40 50">
			<path fill-rule="evenodd" clip-rule="evenodd" d="M20.916 0.833252V15.7499L20.916 15.8188C20.9158 16.229 20.9157 16.6726 20.966 17.0471C21.025 17.4857 21.1766 18.0461 21.6482 18.5177C22.1198 18.9893 22.6802 19.141 23.1189 19.1999C23.4933 19.2503 23.9369 19.2501 24.3471 19.2499H24.3471L24.416 19.2499H39.3327V34.6666C39.3327 41.5019 39.3327 44.9196 37.2092 47.0431C35.0857 49.1666 31.668 49.1666 24.8327 49.1666H15.166C8.33065 49.1666 4.91297 49.1666 2.78949 47.0431C0.666016 44.9196 0.666016 41.5019 0.666016 34.6666V15.3333C0.666016 8.49789 0.666016 5.0802 2.78949 2.95673C4.91297 0.833252 8.33065 0.833252 15.166 0.833252H20.916ZM23.916 0.83389V15.7499C23.916 15.9481 23.9161 16.1087 23.9183 16.2476C24.0572 16.2499 24.2179 16.2499 24.416 16.2499H39.332C39.3274 14.7091 39.2885 13.8505 38.9648 13.069C38.5969 12.1808 37.8984 11.4823 36.5014 10.0853L30.0806 3.66455C28.6837 2.26757 27.9852 1.56908 27.097 1.20117C26.3154 0.877447 25.4568 0.838561 23.916 0.83389ZM10.7493 27.4166C10.7493 26.312 11.6448 25.4166 12.7493 25.4166H27.2493C28.3539 25.4166 29.2493 26.312 29.2493 27.4166C29.2493 28.5212 28.3539 29.4166 27.2493 29.4166H12.7493C11.6448 29.4166 10.7493 28.5212 10.7493 27.4166ZM12.7493 35.0832C11.6448 35.0832 10.7493 35.9787 10.7493 37.0832C10.7493 38.1878 11.6448 39.0832 12.7493 39.0832H22.416C23.5206 39.0832 24.416 38.1878 24.416 37.0832C24.416 35.9787 23.5206 35.0832 22.416 35.0832H12.7493Z" fill="currentColor" />
		</symbol>
		<symbol id="question" width="100%" height="100%" viewBox="0 0 22 22">
			<path fill-rule="evenodd" clip-rule="evenodd" d="M11 0C4.925 0 0 4.925 0 11C0 17.075 4.925 22 11 22C17.075 22 22 17.075 22 11C22 4.925 17.075 0 11 0ZM9.892 7.935C10.122 7.482 10.292 7.267 10.433 7.155C10.539 7.071 10.683 7 11 7C11.625 7 12 7.47 12 7.978C12 8.256 11.946 8.394 11.798 8.57C11.591 8.816 11.208 9.115 10.45 9.616C10.1691 9.80076 10 10.1144 10 10.4506V12C10 12.2652 10.1054 12.5196 10.2929 12.7071C10.4804 12.8946 10.7348 13 11 13C11.2652 13 11.5196 12.8946 11.7071 12.7071C11.8946 12.5196 12 12.2652 12 12C12 11.3632 12.3272 10.7842 12.8112 10.3703C13.006 10.2037 13.179 10.0348 13.327 9.859C13.804 9.293 14 8.689 14 7.978C14 6.508 12.867 5 11 5C10.316 5 9.711 5.176 9.192 5.587C8.708 5.97 8.378 6.497 8.108 7.032C8.04526 7.14947 8.00661 7.27828 7.99433 7.41089C7.98205 7.54349 7.99637 7.67722 8.03647 7.80421C8.07657 7.9312 8.14163 8.04891 8.22783 8.15042C8.31403 8.25193 8.41964 8.3352 8.53846 8.39534C8.65728 8.45548 8.78691 8.49128 8.91975 8.50065C9.0526 8.51001 9.18597 8.49275 9.31205 8.44987C9.43814 8.40699 9.55438 8.33936 9.65397 8.25094C9.75356 8.16253 9.83449 8.05511 9.892 7.935ZM12 15.5C12 15.2348 11.8946 14.9804 11.7071 14.7929C11.5196 14.6054 11.2652 14.5 11 14.5C10.7348 14.5 10.4804 14.6054 10.2929 14.7929C10.1054 14.9804 10 15.2348 10 15.5V16C10 16.2652 10.1054 16.5196 10.2929 16.7071C10.4804 16.8946 10.7348 17 11 17C11.2652 17 11.5196 16.8946 11.7071 16.7071C11.8946 16.5196 12 16.2652 12 16V15.5Z" fill="currentColor"/>
		</symbol>
	</defs>
</svg>
